<svg width="63" height="73" viewBox="0 0 63 73" fill="none" xmlns="http://www.w3.org/2000/svg">
<path d="M26.4445 19.1729C20.9437 17.538 10.6173 23.7237 9.02195 29.0914C8.30344 31.509 9.73132 33.5052 12.8436 34.4302C16.2268 35.4357 18.9771 34.3623 21.6904 35.1688C24.4273 35.9822 26.1511 38.3853 29.5045 39.3819C32.6168 40.3069 34.9032 39.4146 35.6217 36.9971C37.217 31.6293 31.9452 20.8077 26.4445 19.1729ZM16.502 15.2672C16.4949 12.6529 14.7375 10.4389 12.5771 10.3215C10.4166 10.2041 8.67138 12.2283 8.67843 14.8426C8.68548 17.4569 10.4429 19.671 12.6034 19.7883C14.7638 19.9057 16.509 17.8816 16.502 15.2672ZM22.7984 15.572C25.1092 15.6451 27.042 13.0683 27.1158 9.81684C27.1895 6.56537 25.3759 3.87096 23.0651 3.79784C20.7543 3.72472 18.8214 6.30152 18.7476 9.55298C18.6739 12.8045 20.4881 15.4998 22.7984 15.572ZM42.8944 19.3327C41.0205 18.2511 38.3398 19.1461 36.9053 21.332C35.4715 23.5181 35.828 26.1669 37.7018 27.2485C39.5757 28.3302 42.2564 27.4352 43.6908 25.2493C45.1246 23.0632 44.7682 20.4144 42.8944 19.3327ZM31.4655 18.1479C33.4411 19.3487 36.432 18.0823 38.1461 15.3183C39.8601 12.5544 39.6482 9.34088 37.6728 8.13935C35.6973 6.93782 32.7062 8.20497 30.9922 10.9689C29.2781 13.7329 29.4898 16.9471 31.4655 18.1479Z" fill="#B29476"/>
<path d="M43.3493 56.8949C39.7874 57.3364 35.4197 63.4686 35.8505 66.9444C36.0446 68.5098 37.363 69.296 39.3783 69.0462C41.569 68.7747 42.8761 67.4705 44.6331 67.2527C46.4053 67.0331 47.9953 67.9782 50.1667 67.7091C52.182 67.4593 53.2686 66.375 53.0746 64.8096C52.6438 61.3339 46.9112 56.4535 43.3493 56.8949ZM36.6731 57.1481C36.0139 55.6517 34.4521 54.8233 33.1846 55.2974C31.9171 55.7714 31.4242 57.3687 32.0833 58.8651C32.7424 60.3615 34.3043 61.1899 35.5718 60.7158C36.8393 60.2418 37.3322 58.6445 36.6731 57.1481ZM40.3576 55.745C41.7001 55.2079 42.1621 53.2469 41.3896 51.3652C40.6172 49.4834 38.9027 48.3939 37.5602 48.931C36.2176 49.4681 35.7556 51.4291 36.5281 53.3108C37.3006 55.1926 39.0156 56.2825 40.3576 55.745ZM52.8161 52.8647C51.4712 52.7144 50.1593 53.899 49.885 55.511C49.6111 57.1231 50.4791 58.5517 51.8239 58.702C53.1688 58.8523 54.4807 57.6677 54.755 56.0556C55.0289 54.4436 54.1609 53.015 52.8161 52.8647ZM45.9698 55.0495C47.4028 55.2426 48.7994 53.7674 49.0891 51.754C49.3788 49.7406 48.4521 47.9522 47.019 47.7586C45.5859 47.5651 44.1894 49.0407 43.8997 51.0541C43.61 53.0675 44.5367 54.8563 45.9698 55.0495Z" fill="#B29476"/>
</svg>
