<svg width="18" height="18" viewBox="0 0 18 18" fill="none" xmlns="http://www.w3.org/2000/svg">
<path d="M0.614975 0.615C0.73109 0.498592 0.869029 0.406235 1.02089 0.343219C1.17275 0.280202 1.33556 0.247766 1.49998 0.247766C1.66439 0.247766 1.8272 0.280202 1.97906 0.343219C2.13092 0.406235 2.26886 0.498592 2.38498 0.615L8.99998 7.2325L15.615 0.615C15.7312 0.49878 15.8692 0.40659 16.021 0.343692C16.1729 0.280794 16.3356 0.248421 16.5 0.248421C16.6643 0.248421 16.8271 0.280794 16.9789 0.343692C17.1308 0.40659 17.2688 0.49878 17.385 0.615C17.5012 0.73122 17.5934 0.869193 17.6563 1.02104C17.7192 1.17289 17.7516 1.33564 17.7516 1.5C17.7516 1.66436 17.7192 1.82711 17.6563 1.97896C17.5934 2.13081 17.5012 2.26878 17.385 2.385L10.7675 9L17.385 15.615C17.5012 15.7312 17.5934 15.8692 17.6563 16.021C17.7192 16.1729 17.7516 16.3356 17.7516 16.5C17.7516 16.6644 17.7192 16.8271 17.6563 16.979C17.5934 17.1308 17.5012 17.2688 17.385 17.385C17.2688 17.5012 17.1308 17.5934 16.9789 17.6563C16.8271 17.7192 16.6643 17.7516 16.5 17.7516C16.3356 17.7516 16.1729 17.7192 16.021 17.6563C15.8692 17.5934 15.7312 17.5012 15.615 17.385L8.99998 10.7675L2.38498 17.385C2.26876 17.5012 2.13078 17.5934 1.97893 17.6563C1.82709 17.7192 1.66434 17.7516 1.49998 17.7516C1.33562 17.7516 1.17287 17.7192 1.02102 17.6563C0.869168 17.5934 0.731195 17.5012 0.614975 17.385C0.498756 17.2688 0.406565 17.1308 0.343667 16.979C0.280769 16.8271 0.248396 16.6644 0.248396 16.5C0.248396 16.3356 0.280769 16.1729 0.343667 16.021C0.406565 15.8692 0.498756 15.7312 0.614975 15.615L7.23248 9L0.614975 2.385C0.498567 2.26889 0.40621 2.13095 0.343194 1.97908C0.280178 1.82722 0.247742 1.66442 0.247742 1.5C0.247742 1.33558 0.280178 1.17278 0.343194 1.02092C0.40621 0.869053 0.498567 0.731114 0.614975 0.615Z" fill="#1C1C1C"/>
</svg>
