<svg width="33" height="32" viewBox="0 0 33 32" fill="none" xmlns="http://www.w3.org/2000/svg">
<path d="M16.5 0C17.047 0 17.5716 0.210714 17.9584 0.585787C18.3452 0.96086 18.5625 1.46957 18.5625 2V14H30.9375C31.4845 14 32.0091 14.2107 32.3959 14.5858C32.7827 14.9609 33 15.4696 33 16C33 16.5304 32.7827 17.0391 32.3959 17.4142C32.0091 17.7893 31.4845 18 30.9375 18H18.5625V30C18.5625 30.5304 18.3452 31.0391 17.9584 31.4142C17.5716 31.7893 17.047 32 16.5 32C15.953 32 15.4284 31.7893 15.0416 31.4142C14.6548 31.0391 14.4375 30.5304 14.4375 30V18H2.0625C1.51549 18 0.990886 17.7893 0.604093 17.4142C0.217299 17.0391 0 16.5304 0 16C0 15.4696 0.217299 14.9609 0.604093 14.5858C0.990886 14.2107 1.51549 14 2.0625 14H14.4375V2C14.4375 1.46957 14.6548 0.96086 15.0416 0.585787C15.4284 0.210714 15.953 0 16.5 0Z" fill="white"/>
</svg>
